<?xml version="1.0" standalone="no"?>
<!DOCTYPE svg PUBLIC "-//W3C//DTD SVG 20010904//EN" "http://www.w3.org/TR/2001/REC-SVG-20010904/DTD/svg10.dtd">
<svg version="1.0" xmlns="http://www.w3.org/2000/svg"
     width="2048.000000pt" height="2048.000000pt"
     viewBox="0 0 2048.000000 2048.000000"
     preserveAspectRatio="xMidYMid meet">
  <g transform="translate(0.000000,2048.000000) scale(0.200000,-0.200000)" fill="#1E40AF" stroke="none">
    <path d="M3137 7616 c-58 -21 -105 -63 -137 -119 -29 -52 -30 -52 -96 -65 -174 -33 -293 -143 -335 -312 -18 -71 -18 -563 0 -767 l12 -143 -33 -41 c-32 -40 -33 -44 -31 -123 3 -166 71 -412 168 -611 198 -407 557 -707 937 -785 l58 -11 -21 -41 c-30 -58 -36 -137 -15 -192 17 -44 17 -47 -7 -113 -48 -134 -62 -218 -61 -373 1 -126 5 -156 28 -233 76 -253 232 -420 471 -503 71 -25 94 -28 210 -29 142 0 198 10 310 58 223 94 401 282 629 663 59 99 135 220 171 269 219 307 442 445 721 446 178 1 329 -53 448 -162 81 -74 132 -151 173 -259 l32 -85 110 -3 111 -3 0 25 c0 44 -51 200 -87 266 -118 216 -314 365 -560 427 -103 26 -352 23 -455 -5 -327 -89 -576 -306 -817 -712 -155 -259 -185 -307 -247 -386 -122 -158 -256 -258 -398 -299 -45 -13 -83 -16 -152 -13 -80 4 -103 10 -166 40 -132 64 -225 174 -270 323 -60 194 3 533 116 627 35 30 47 49 66 107 15 48 21 85 18 115 l-5 44 61 11 c280 53 560 232 774 493 188 231 323 544 363 844 14 104 7 144 -32 189 l-30 34 10 133 c30 392 22 731 -20 843 -44 119 -174 219 -317 246 -61 11 -64 13 -87 59 -117 231 -464 154 -465 -103 0 -97 47 -174 135 -219 83 -43 223 -19 287 49 25 27 56 29 124 7 69 -23 113 -59 138 -113 20 -44 21 -60 21 -401 0 -195 -4 -384 -8 -420 -8 -64 -9 -66 -50 -86 -55 -26 -84 -71 -92 -142 -61 -572 -382 -986 -821 -1063 -110 -19 -301 -7 -404 26 -207 66 -362 185 -490 377 -127 189 -174 326 -229 668 -13 76 -33 108 -88 134 -40 20 -41 21 -47 85 -3 36 -9 212 -12 391 -8 388 -4 423 60 486 28 29 58 47 95 58 80 24 108 21 149 -15 51 -45 98 -62 167 -62 73 1 127 25 175 79 44 50 60 93 60 157 0 98 -37 167 -116 213 -55 32 -150 42 -207 20z"/>
    <path d="M6232 7320 c-59 -36 -62 -56 -62 -385 l0 -295 -321 0 c-308 0 -323 -1 -355 -21 -52 -32 -56 -59 -52 -372 l3 -279 37 -34 38 -34 325 0 325 0 0 -320 c0 -356 3 -374 62 -410 31 -19 50 -20 296 -20 291 0 308 3 338 62 14 28 16 73 15 360 l-2 328 313 0 c437 0 408 -26 408 365 0 296 -4 320 -62 355 -31 19 -50 20 -345 20 l-313 0 0 310 c0 272 -2 314 -16 336 -34 51 -52 54 -336 54 -246 0 -265 -1 -296 -20z"/>
    <path d="M6670 3970 c-166 -26 -327 -134 -414 -278 -144 -237 -102 -550 98 -740 128 -121 255 -168 441 -160 165 7 282 59 400 177 263 263 219 715 -90 910 -123 78 -294 113 -435 91z m262 -254 c70 -34 140 -108 176 -184 23 -49 27 -70 27 -147 0 -85 -2 -96 -38 -167 -84 -170 -255 -244 -437 -189 -64 20 -81 31 -140 89 -86 85 -113 150 -113 267 0 165 90 291 251 352 25 9 68 12 127 10 73 -3 101 -9 147 -31z"/>
    <path d="M6676 3590 c-52 -27 -84 -57 -107 -102 -61 -119 -13 -260 108 -315 203 -93 405 125 295 320 -41 74 -103 111 -191 114 -51 3 -75 -1 -105 -17z"/>
  </g>
</svg>
