<?xml version="1.0" encoding="UTF-8"?>
<svg version="1.1" xmlns="http://www.w3.org/2000/svg" width="66" height="67">
<path d="M0 0 C21.78 0 43.56 0 66 0 C66 22.11 66 44.22 66 67 C44.22 67 22.44 67 0 67 C0 44.89 0 22.78 0 0 Z " fill="#FCFCFC" transform="translate(0,0)"/>
<path d="M0 0 C0.81977325 -0.01472855 1.63954651 -0.02945709 2.48416138 -0.04463196 C4.2137933 -0.06851895 5.94355954 -0.08398434 7.67333984 -0.09155273 C10.30673133 -0.11316976 12.93429486 -0.19339875 15.56640625 -0.27539062 C27.40531876 -0.47329635 27.40531876 -0.47329635 32.17822266 1.97753906 C35.91590975 5.6345703 36.82946483 9.26996484 37.234375 14.39453125 C37.21595779 16.4967245 37.16051107 18.59888071 37.0703125 20.69921875 C37.06386719 21.75753906 37.05742188 22.81585938 37.05078125 23.90625 C36.93347228 29.40597077 36.7972576 33.99560438 33.4453125 38.57421875 C28.41022525 43.18143819 24.07339238 42.98301642 17.6328125 42.88671875 C9.16622327 42.97353986 9.16622327 42.97353986 1.9453125 47.13671875 C1.336875 47.77738281 0.7284375 48.41804688 0.1015625 49.078125 C-1.5546875 50.57421875 -1.5546875 50.57421875 -5.5546875 50.57421875 C-5.5753125 49.31609375 -5.5959375 48.05796875 -5.6171875 46.76171875 C-5.80203095 44.54289688 -5.80203095 44.54289688 -6.5546875 42.57421875 C-9.87988166 40.87518349 -9.87988166 40.87518349 -13.5546875 39.57421875 C-18.74233331 34.14700138 -18.15396431 28.19687795 -18.0546875 21.01171875 C-18.07015625 19.88830078 -18.085625 18.76488281 -18.1015625 17.60742188 C-18.06296735 9.4879673 -18.06296735 9.4879673 -15.8359375 5.484375 C-10.67122262 1.15981066 -6.69379704 0.08213116 0 0 Z " fill="#FAFAFA" transform="translate(22.5546875,9.42578125)"/>
<path d="M0 0 C0.81977325 -0.01472855 1.63954651 -0.02945709 2.48416138 -0.04463196 C4.2137933 -0.06851895 5.94355954 -0.08398434 7.67333984 -0.09155273 C10.30673133 -0.11316976 12.93429486 -0.19339875 15.56640625 -0.27539062 C27.40531876 -0.47329635 27.40531876 -0.47329635 32.17822266 1.97753906 C35.91590975 5.6345703 36.82946483 9.26996484 37.234375 14.39453125 C37.21595779 16.4967245 37.16051107 18.59888071 37.0703125 20.69921875 C37.06386719 21.75753906 37.05742188 22.81585938 37.05078125 23.90625 C36.93347228 29.40597077 36.7972576 33.99560438 33.4453125 38.57421875 C28.41022525 43.18143819 24.07339238 42.98301642 17.6328125 42.88671875 C9.16622327 42.97353986 9.16622327 42.97353986 1.9453125 47.13671875 C1.336875 47.77738281 0.7284375 48.41804688 0.1015625 49.078125 C-1.5546875 50.57421875 -1.5546875 50.57421875 -5.5546875 50.57421875 C-5.5753125 49.31609375 -5.5959375 48.05796875 -5.6171875 46.76171875 C-5.80203095 44.54289688 -5.80203095 44.54289688 -6.5546875 42.57421875 C-9.87988166 40.87518349 -9.87988166 40.87518349 -13.5546875 39.57421875 C-18.74233331 34.14700138 -18.15396431 28.19687795 -18.0546875 21.01171875 C-18.07015625 19.88830078 -18.085625 18.76488281 -18.1015625 17.60742188 C-18.06296735 9.4879673 -18.06296735 9.4879673 -15.8359375 5.484375 C-10.67122262 1.15981066 -6.69379704 0.08213116 0 0 Z M-12.5546875 8.57421875 C-13.28606581 11.29337148 -13.28606581 11.29337148 -13.1484375 14.29296875 C-13.14585938 15.38996094 -13.14328125 16.48695312 -13.140625 17.6171875 C-13.11226562 18.75800781 -13.08390625 19.89882813 -13.0546875 21.07421875 C-13.05726562 22.21503906 -13.05984375 23.35585938 -13.0625 24.53125 C-13.22984441 31.72317736 -13.22984441 31.72317736 -9.5546875 37.57421875 C-5.95003002 38.38736786 -5.95003002 38.38736786 -2.5546875 38.57421875 C-2.2246875 40.55421875 -1.8946875 42.53421875 -1.5546875 44.57421875 C0.93951397 43.46568476 2.52750728 42.4907521 4.46484375 40.5234375 C9.32755737 37.34323554 14.47826547 38.0958681 20.140625 38.17382812 C24.35017628 38.12042337 26.84692913 37.92643175 30.53125 35.7578125 C33.42069057 30.95190624 33.17338432 26.57825416 33.0703125 21.07421875 C33.08964844 20.04167969 33.10898437 19.00914063 33.12890625 17.9453125 C33.11923828 16.44677734 33.11923828 16.44677734 33.109375 14.91796875 C33.10373535 14.01240234 33.0980957 13.10683594 33.09228516 12.17382812 C32.14371553 8.36236799 30.5733841 6.90748636 27.4453125 4.57421875 C24.58261481 4.08608725 22.32849805 3.89309312 19.4765625 3.9453125 C18.3396698 3.94169456 18.3396698 3.94169456 17.17980957 3.93800354 C15.58287302 3.93897979 13.98590171 3.95232066 12.38916016 3.97729492 C9.95227485 4.01162068 7.51901641 3.99794265 5.08203125 3.97851562 C3.52602632 3.98541451 1.97003069 3.9950873 0.4140625 4.0078125 C-0.31002808 4.00285263 -1.03411865 3.99789276 -1.78015137 3.99278259 C-6.60229913 4.10439324 -9.34185691 4.91554637 -12.5546875 8.57421875 Z " fill="#585E6C" transform="translate(22.5546875,9.42578125)"/>
<path d="M0 0 C0.33 0 0.66 0 1 0 C1.01981934 0.7113208 1.03963867 1.4226416 1.06005859 2.15551758 C1.15524867 5.37488816 1.26495229 8.5936045 1.375 11.8125 C1.42140625 13.49182617 1.42140625 13.49182617 1.46875 15.20507812 C1.50742188 16.27822266 1.54609375 17.35136719 1.5859375 18.45703125 C1.6173584 19.44678955 1.6487793 20.43654785 1.68115234 21.45629883 C1.83773433 24.24075094 1.83773433 24.24075094 4 27 C6.32156597 27.40729228 8.6568787 27.74438677 11 28 C12 29 12 29 12.0625 32.0625 C12.041875 33.031875 12.02125 34.00125 12 35 C14.64 33.02 17.28 31.04 20 29 C20.33 29.66 20.66 30.32 21 31 C20.34 31 19.68 31 19 31 C19 31.66 19 32.32 19 33 C19.66 33.33 20.32 33.66 21 34 C19.59310148 35.17842782 18.17406375 36.34237398 16.75 37.5 C15.56664062 38.47453125 15.56664062 38.47453125 14.359375 39.46875 C12 41 12 41 8 41 C7.979375 39.741875 7.95875 38.48375 7.9375 37.1875 C7.76167799 34.97307298 7.76167799 34.97307298 7 33 C3.60837294 31.17737669 3.60837294 31.17737669 0 30 C-1.4375 27.8125 -1.4375 27.8125 -2 26 C-1.34 26 -0.68 26 0 26 C0 17.42 0 8.84 0 0 Z " fill="#5D6270" transform="translate(9,19)"/>
<path d="M0 0 C0 0.99 0 1.98 0 3 C-3.30288336 5.20192224 -4.27462727 5.23959968 -8.10546875 5.1953125 C-9.08837891 5.18886719 -10.07128906 5.18242188 -11.08398438 5.17578125 C-12.10814453 5.15902344 -13.13230469 5.14226563 -14.1875 5.125 C-15.22326172 5.11597656 -16.25902344 5.10695313 -17.32617188 5.09765625 C-19.88434685 5.0740786 -22.44205748 5.0411703 -25 5 C-25 4.34 -25 3.68 -25 3 C-24.34 3 -23.68 3 -23 3 C-23 2.34 -23 1.68 -23 1 C-19.54170353 0.83256252 -16.08335707 0.66618079 -12.625 0.5 C-11.64015625 0.45230469 -10.6553125 0.40460937 -9.640625 0.35546875 C-8.69960938 0.31035156 -7.75859375 0.26523437 -6.7890625 0.21875 C-5.91975098 0.17685547 -5.05043945 0.13496094 -4.15478516 0.09179688 C-2.77077412 0.03283606 -1.38526637 0 0 0 Z " fill="#464C5D" transform="translate(53,47)"/>
<path d="M0 0 C0.33 0 0.66 0 1 0 C1.08751413 3.87485635 1.14056435 7.74945643 1.1875 11.625 C1.21263672 12.71941406 1.23777344 13.81382813 1.26367188 14.94140625 C1.35773377 25.28821508 1.35773377 25.28821508 -2 30 C-2.99 30.66 -3.98 31.32 -5 32 C-5 31.01 -5 30.02 -5 29 C-5.66 29.33 -6.32 29.66 -7 30 C-8.59447464 30.08400529 -10.19240545 30.10727467 -11.7890625 30.09765625 C-12.73007812 30.09443359 -13.67109375 30.09121094 -14.640625 30.08789062 C-16.11789063 30.07532227 -16.11789063 30.07532227 -17.625 30.0625 C-18.61757813 30.05798828 -19.61015625 30.05347656 -20.6328125 30.04882812 C-23.0886016 30.03702145 -25.54427104 30.020554 -28 30 C-28 29.67 -28 29.34 -28 29 C-27.41508789 28.9906543 -26.83017578 28.98130859 -26.22753906 28.97167969 C-23.5675142 28.91786721 -20.90922778 28.83424551 -18.25 28.75 C-16.86941406 28.72873047 -16.86941406 28.72873047 -15.4609375 28.70703125 C-10.07428879 28.56871263 -10.07428879 28.56871263 -5.40625 26.125 C-3.82056151 23.7288485 -3.3156418 21.84077622 -3 19 C-2.67 20.32 -2.34 21.64 -2 23 C-1.34 23 -0.68 23 0 23 C0 15.41 0 7.82 0 0 Z " fill="#666976" transform="translate(58,18)"/>
<path d="M0 0 C1.37365621 2.74731243 1.0128639 4.81667064 0.87890625 7.8828125 C0.83056641 9.04941406 0.78222656 10.21601563 0.73242188 11.41796875 C0.67634766 12.64128906 0.62027344 13.86460938 0.5625 15.125 C0.51029297 16.35605469 0.45808594 17.58710937 0.40429688 18.85546875 C0.2743256 21.90388588 0.13934981 24.9519995 0 28 C-0.99 28 -1.98 28 -3 28 C-3.08694042 23.89596637 -3.14037149 19.79216871 -3.1875 15.6875 C-3.21263672 14.52025391 -3.23777344 13.35300781 -3.26367188 12.15039062 C-3.27817383 10.47299805 -3.27817383 10.47299805 -3.29296875 8.76171875 C-3.3086792 7.73006592 -3.32438965 6.69841309 -3.34057617 5.63549805 C-3 3 -3 3 -1.48168945 1.13989258 C-0.74825317 0.57564575 -0.74825317 0.57564575 0 0 Z " fill="#374050" transform="translate(9,17)"/>
<path d="M0 0 C0.66 0.33 1.32 0.66 2 1 C2 8.59 2 16.18 2 24 C1.34 24 0.68 24 0 24 C-0.83154277 21.09455489 -1.12838334 18.50675118 -1.1328125 15.48828125 C-1.13410156 14.64845703 -1.13539062 13.80863281 -1.13671875 12.94335938 C-1.13285156 12.07517578 -1.12898438 11.20699219 -1.125 10.3125 C-1.12886719 9.43271484 -1.13273437 8.55292969 -1.13671875 7.64648438 C-1.13542969 6.81052734 -1.13414063 5.97457031 -1.1328125 5.11328125 C-1.13168457 4.34798096 -1.13055664 3.58268066 -1.12939453 2.79418945 C-1 1 -1 1 0 0 Z " fill="#313848" transform="translate(56,17)"/>
<path d="M0 0 C-0.66 1.32 -1.32 2.64 -2 4 C-2.66 4 -3.32 4 -4 4 C-4 11.92 -4 19.84 -4 28 C-4.33 28 -4.66 28 -5 28 C-5.08694042 23.89596637 -5.14037149 19.79216871 -5.1875 15.6875 C-5.21263672 14.52025391 -5.23777344 13.35300781 -5.26367188 12.15039062 C-5.27817383 10.47299805 -5.27817383 10.47299805 -5.29296875 8.76171875 C-5.3086792 7.73006592 -5.32438965 6.69841309 -5.34057617 5.63549805 C-5 3 -5 3 -3.60668945 1.13989258 C-2 0 -2 0 0 0 Z " fill="#E4E5E8" transform="translate(15,15)"/>
<path d="M0 0 C3.37503669 1.1858237 5.64722731 2.27573689 8 5 C7.67 5.66 7.34 6.32 7 7 C6.01 7.33 5.02 7.66 4 8 C4 7.34 4 6.68 4 6 C2.68 5.34 1.36 4.68 0 4 C0 2.68 0 1.36 0 0 Z " fill="#575D6B" transform="translate(50,11)"/>
<path d="M0 0 C1.32 0.33 2.64 0.66 4 1 C3 4 3 4 0.625 5.75 C-2 7 -2 7 -5 6 C-4.01 5.67 -3.02 5.34 -2 5 C-0.78130071 2.49552484 -0.78130071 2.49552484 0 0 Z " fill="#4D5361" transform="translate(12,11)"/>
<path d="M0 0 C0.66 0.33 1.32 0.66 2 1 C2 1.66 2 2.32 2 3 C1.34 3 0.68 3 0 3 C0 8.61 0 14.22 0 20 C-0.33 20 -0.66 20 -1 20 C-1.02888514 16.85418577 -1.04675923 13.70840531 -1.0625 10.5625 C-1.07087891 9.66466797 -1.07925781 8.76683594 -1.08789062 7.84179688 C-1.09111328 6.98779297 -1.09433594 6.13378906 -1.09765625 5.25390625 C-1.10551147 4.06776733 -1.10551147 4.06776733 -1.11352539 2.85766602 C-1 1 -1 1 0 0 Z " fill="#414656" transform="translate(56,17)"/>
</svg>
