<?xml version="1.0" encoding="UTF-8"?>
<svg version="1.1" xmlns="http://www.w3.org/2000/svg" width="71" height="63">
<path d="M0 0 C23.43 0 46.86 0 71 0 C71 20.79 71 41.58 71 63 C47.57 63 24.14 63 0 63 C0 42.21 0 21.42 0 0 Z " fill="#FBFBFB" transform="translate(0,0)"/>
<path d="M0 0 C3.53824116 0.12245279 4.19682894 0.50719106 7.1875 2.8125 C10.33222144 7.17724715 9.59767461 12.37737488 9.1875 17.5 C9.92355469 17.44199219 10.65960938 17.38398438 11.41796875 17.32421875 C12.39378906 17.27910156 13.36960938 17.23398437 14.375 17.1875 C15.33792969 17.12949219 16.30085938 17.07148438 17.29296875 17.01171875 C21.38163057 17.70143903 22.74681151 19.19737467 25.1875 22.5 C26.82202654 32.00606222 25.00794119 40.85911762 20.75 49.375 C19.04553897 51.693067 17.62764358 52.97835698 15.1875 54.5 C12.72973633 54.85644531 12.72973633 54.85644531 10.01953125 54.828125 C9.04435547 54.82296875 8.06917969 54.8178125 7.06445312 54.8125 C6.05318359 54.791875 5.04191406 54.77125 4 54.75 C2.97712891 54.74484375 1.95425781 54.7396875 0.90039062 54.734375 C-6.65837735 54.65412265 -6.65837735 54.65412265 -7.8125 53.5 C-10.3125 53.33333333 -10.3125 53.33333333 -12.8125 53.5 C-13.1425 53.83 -13.4725 54.16 -13.8125 54.5 C-16.32386104 54.59975032 -18.80153415 54.63882183 -21.3125 54.625 C-22.01503906 54.62886719 -22.71757812 54.63273437 -23.44140625 54.63671875 C-28.68588622 54.62661378 -28.68588622 54.62661378 -29.8125 53.5 C-29.9132812 51.13601532 -29.95223215 48.80188689 -29.9453125 46.4375 C-29.94626923 45.73101318 -29.94722595 45.02452637 -29.94821167 44.29663086 C-29.94889333 42.80029207 -29.94704005 41.30395033 -29.94287109 39.80761719 C-29.93752257 37.50969843 -29.94281651 35.21197514 -29.94921875 32.9140625 C-29.94855797 31.46354123 -29.9472768 30.01302009 -29.9453125 28.5625 C-29.94733673 27.8708374 -29.94936096 27.1791748 -29.95144653 26.46655273 C-29.92745224 21.61495224 -29.92745224 21.61495224 -28.8125 20.5 C-26.85179065 20.59887697 -24.89116971 20.70078603 -22.93164062 20.82080078 C-15.95662689 21.35977763 -15.95662689 21.35977763 -9.609375 19.07421875 C-6.67959662 14.67072655 -6.20362143 9.7981285 -6.05078125 4.6015625 C-5.59349437 0.56844213 -3.79630827 0.49787649 0 0 Z " fill="#393E4D" transform="translate(39.8125,1.5)"/>
<path d="M0 0 C1.9375 0.1875 1.9375 0.1875 4 1 C6.59882126 4.37846764 6.21627753 7.89072694 6 12 C5.68604625 13.67042567 5.35632564 15.3380972 5 17 C6.05960938 16.97679688 7.11921875 16.95359375 8.2109375 16.9296875 C9.5989513 16.91093056 10.9869727 16.89273028 12.375 16.875 C13.42300781 16.84986328 13.42300781 16.84986328 14.4921875 16.82421875 C16.32897486 16.80655733 18.16601963 16.89696739 20 17 C22 19 22 19 22.1953125 21.8203125 C22.17210937 22.91085938 22.14890625 24.00140625 22.125 25.125 C22.10695312 26.22070312 22.08890625 27.31640625 22.0703125 28.4453125 C22.04710937 29.28835937 22.02390625 30.13140625 22 31 C21.34 31 20.68 31 20 31 C20.04125 32.03125 20.0825 33.0625 20.125 34.125 C20.00251678 37.92197972 19.52829414 40.54122905 18 44 C13.53940842 46.97372772 9.30913019 46.32930535 4.0625 46.3125 C2.55913086 46.33666992 2.55913086 46.33666992 1.02539062 46.36132812 C0.05923828 46.36197266 -0.90691406 46.36261719 -1.90234375 46.36328125 C-3.22480103 46.36775269 -3.22480103 46.36775269 -4.57397461 46.37231445 C-7.55610894 45.91465572 -8.8984796 45.15793104 -11 43 C-11.85687541 39.65970924 -11.64855996 36.24989752 -11.625 32.8125 C-11.65722656 31.89146484 -11.68945312 30.97042969 -11.72265625 30.02148438 C-11.73152345 23.77453955 -10.44615867 20.20697286 -6.48583984 15.36987305 C-5 14 -5 14 -3 14 C-2.86722656 13.07316406 -2.73445313 12.14632813 -2.59765625 11.19140625 C-2.42105469 9.99386719 -2.24445312 8.79632813 -2.0625 7.5625 C-1.88847656 6.36753906 -1.71445312 5.17257812 -1.53515625 3.94140625 C-1 1 -1 1 0 0 Z " fill="#F6F6F7" transform="translate(39,6)"/>
<path d="M0 0 C3.53824116 0.12245279 4.19682894 0.50719106 7.1875 2.8125 C10.33222144 7.17724715 9.59767461 12.37737488 9.1875 17.5 C9.92355469 17.44199219 10.65960938 17.38398438 11.41796875 17.32421875 C12.39378906 17.27910156 13.36960938 17.23398437 14.375 17.1875 C15.33792969 17.12949219 16.30085938 17.07148438 17.29296875 17.01171875 C21.38163057 17.70143903 22.74681151 19.19737467 25.1875 22.5 C26.82202654 32.00606222 25.00794119 40.85911762 20.75 49.375 C18.53475671 52.38773087 16.58587086 54.28110085 12.80908203 54.87231445 C11.94653809 54.8693335 11.08399414 54.86635254 10.1953125 54.86328125 C8.76638672 54.86231445 8.76638672 54.86231445 7.30859375 54.86132812 C6.31988281 54.84521484 5.33117188 54.82910156 4.3125 54.8125 C3.33152344 54.81572266 2.35054687 54.81894531 1.33984375 54.82226562 C-3.76001757 54.7844124 -8.04395143 54.52865371 -12.8125 52.5 C-12.8125 52.17 -12.8125 51.84 -12.8125 51.5 C-9.38191274 50.73918738 -6.12709302 50.34007051 -2.6171875 50.21875 C-1.65425781 50.18136719 -0.69132812 50.14398438 0.30078125 50.10546875 C2.3163967 50.03488299 4.33202181 49.9645726 6.34765625 49.89453125 C7.78818359 49.83845703 7.78818359 49.83845703 9.2578125 49.78125 C10.13195801 49.75095703 11.00610352 49.72066406 11.90673828 49.68945312 C14.35087527 49.57699147 14.35087527 49.57699147 17.1875 48.5 C17.166875 47.695625 17.14625 46.89125 17.125 46.0625 C17.1875 43.5 17.1875 43.5 18.1875 42.5 C18.55510731 40.17182036 18.88991581 37.8381615 19.1875 35.5 C19.8475 35.5 20.5075 35.5 21.1875 35.5 C21.043125 34.283125 20.89875 33.06625 20.75 31.8125 C20.66878906 31.12800781 20.58757813 30.44351562 20.50390625 29.73828125 C20.16065336 27.31008489 19.66844299 24.90471494 19.1875 22.5 C14.2375 22.17 9.2875 21.84 4.1875 21.5 C4.25260417 18.50520833 4.31770833 15.51041667 4.3828125 12.515625 C4.19237687 9.57529894 3.71420104 7.97638122 2.1875 5.5 C1.1975 5.5 0.2075 5.5 -0.8125 5.5 C-0.90724609 6.53447266 -0.90724609 6.53447266 -1.00390625 7.58984375 C-2.00779287 15.29335264 -4.57223076 19.82537689 -9.8125 25.5 C-10.1425 24.84 -10.4725 24.18 -10.8125 23.5 C-14.41028356 22.18139486 -18.27143187 22.18321738 -22.0625 21.9375 C-23.32578125 21.85371094 -24.5890625 21.76992188 -25.890625 21.68359375 C-27.33695313 21.59271484 -27.33695313 21.59271484 -28.8125 21.5 C-28.8125 21.17 -28.8125 20.84 -28.8125 20.5 C-27.64332031 20.5928125 -26.47414063 20.685625 -25.26953125 20.78125 C-17.09655929 21.54624845 -17.09655929 21.54624845 -9.60546875 19.0703125 C-6.67920882 14.66766161 -6.20354591 9.79556106 -6.05078125 4.6015625 C-5.59349437 0.56844213 -3.79630827 0.49787649 0 0 Z " fill="#4D5362" transform="translate(39.8125,1.5)"/>
<path d="M0 0 C2.64 0 5.28 0 8 0 C8 8.25 8 16.5 8 25 C5.36 25 2.72 25 0 25 C0 16.75 0 8.5 0 0 Z " fill="#FDFDFD" transform="translate(15,26)"/>
<path d="M0 0 C3.53824116 0.12245279 4.19682894 0.50719106 7.1875 2.8125 C10.38010982 7.2437143 9.5053031 12.2880291 9.1875 17.5 C12.8175 17.5 16.4475 17.5 20.1875 17.5 C20.1875 17.83 20.1875 18.16 20.1875 18.5 C16.2275 18.5 12.2675 18.5 8.1875 18.5 C7.6925 14.045 7.6925 14.045 7.1875 9.5 C6.1975 9.5 5.2075 9.5 4.1875 9.5 C3.5275 8.18 2.8675 6.86 2.1875 5.5 C1.1975 5.5 0.2075 5.5 -0.8125 5.5 C-0.90724609 6.53447266 -0.90724609 6.53447266 -1.00390625 7.58984375 C-2.00779287 15.29335264 -4.57223076 19.82537689 -9.8125 25.5 C-10.1425 24.84 -10.4725 24.18 -10.8125 23.5 C-14.41028356 22.18139486 -18.27143187 22.18321738 -22.0625 21.9375 C-23.32578125 21.85371094 -24.5890625 21.76992188 -25.890625 21.68359375 C-27.33695313 21.59271484 -27.33695313 21.59271484 -28.8125 21.5 C-28.8125 21.17 -28.8125 20.84 -28.8125 20.5 C-27.64332031 20.5928125 -26.47414063 20.685625 -25.26953125 20.78125 C-17.09655929 21.54624845 -17.09655929 21.54624845 -9.60546875 19.0703125 C-6.67920882 14.66766161 -6.20354591 9.79556106 -6.05078125 4.6015625 C-5.59349437 0.56844213 -3.79630827 0.49787649 0 0 Z " fill="#5B616F" transform="translate(39.8125,1.5)"/>
<path d="M0 0 C0.33 0 0.66 0 1 0 C1.33 9.57 1.66 19.14 2 29 C3.31361698 26.37276604 3.21253909 24.27389439 3.31640625 21.3359375 C3.37924805 19.65371094 3.37924805 19.65371094 3.44335938 17.9375 C3.50233398 16.1740625 3.50233398 16.1740625 3.5625 14.375 C3.60568359 13.19164062 3.64886719 12.00828125 3.69335938 10.7890625 C3.79967426 7.85949672 3.90170642 4.92984412 4 2 C7.3 2 10.6 2 14 2 C14.02465881 5.96930989 14.04284023 9.93859034 14.05493164 13.90795898 C14.05997057 15.25920386 14.06680177 16.61044326 14.07543945 17.96166992 C14.08752419 19.90020434 14.09269828 21.838778 14.09765625 23.77734375 C14.10289307 24.94515381 14.10812988 26.11296387 14.11352539 27.31616211 C14 30 14 30 13 31 C13.99 31.66 14.98 32.32 16 33 C13.52076199 33.02685095 11.0418116 33.04676547 8.5625 33.0625 C7.85544922 33.07087891 7.14839844 33.07925781 6.41992188 33.08789062 C4.61306441 33.09653588 2.80612397 33.05220011 1 33 C0 32 0 32 -0.11352539 28.94897461 C-0.11336634 27.60008729 -0.10767612 26.25119386 -0.09765625 24.90234375 C-0.0962413 24.19348526 -0.09482635 23.48462677 -0.09336853 22.75428772 C-0.08775443 20.48198288 -0.07519963 18.20977525 -0.0625 15.9375 C-0.05748681 14.40039204 -0.05292359 12.86328255 -0.04882812 11.32617188 C-0.03778042 7.55074358 -0.02050641 3.77538829 0 0 Z M5 3 C5 11.25 5 19.5 5 28 C7.64 28 10.28 28 13 28 C13 19.75 13 11.5 13 3 C10.36 3 7.72 3 5 3 Z " fill="#767A86" transform="translate(10,23)"/>
<path d="M0 0 C7.06758397 -0.71873735 7.06758397 -0.71873735 11 2.3125 C14.19260982 6.7437143 13.3178031 11.7880291 13 17 C16.63 17 20.26 17 24 17 C24 17.33 24 17.66 24 18 C20.04 18 16.08 18 12 18 C11.67 15.03 11.34 12.06 11 9 C10.01 9 9.02 9 8 9 C7.34 7.68 6.68 6.36 6 5 C5.01 5 4.02 5 3 5 C2.34 8.63 1.68 12.26 1 16 C-0.17819495 11.28722018 0.17074135 8.74939042 1 4 C1.66 3.01 2.32 2.02 3 1 C2.01 0.67 1.02 0.34 0 0 Z " fill="#707480" transform="translate(36,2)"/>
<path d="M0 0 C3.3112299 3.3112299 3.38167679 3.60346757 3.3984375 7.96484375 C3.40230469 8.92970703 3.40617188 9.89457031 3.41015625 10.88867188 C3.39855469 11.89478516 3.38695312 12.90089844 3.375 13.9375 C3.38660156 14.93974609 3.39820313 15.94199219 3.41015625 16.97460938 C3.40628906 17.94076172 3.40242187 18.90691406 3.3984375 19.90234375 C3.39336182 21.22480103 3.39336182 21.22480103 3.38818359 22.57397461 C3 25 3 25 0 29 C0 19.43 0 9.86 0 0 Z " fill="#293141" transform="translate(11,25)"/>
<path d="M0 0 C4.62 0 9.24 0 14 0 C15.37365621 2.74731243 15.0128639 4.81667064 14.87890625 7.8828125 C14.83056641 9.04941406 14.78222656 10.21601562 14.73242188 11.41796875 C14.67634766 12.64128906 14.62027344 13.86460938 14.5625 15.125 C14.51029297 16.35605469 14.45808594 17.58710937 14.40429688 18.85546875 C14.2743256 21.90388588 14.13934981 24.9519995 14 28 C13.67 28 13.34 28 13 28 C13 19.42 13 10.84 13 2 C9.7 2 6.4 2 3 2 C2.67 2.99 2.34 3.98 2 5 C1.34 3.35 0.68 1.7 0 0 Z " fill="#3D4455" transform="translate(11,23)"/>
<path d="M0 0 C1.13891534 3.41674601 0.83543755 5.06177265 0.1875 8.5625 C0.01605469 9.53316406 -0.15539063 10.50382812 -0.33203125 11.50390625 C-1 14 -1 14 -3 16 C-3.99 16 -4.98 16 -6 16 C-5.67 13.36 -5.34 10.72 -5 8 C-4.01 8 -3.02 8 -2 8 C-2 5.69 -2 3.38 -2 1 C-1.34 0.67 -0.68 0.34 0 0 Z " fill="#3C4251" transform="translate(62,37)"/>
<path d="M0 0 C0.33 0 0.66 0 1 0 C1.30654742 8.61738853 1.39589303 15.93475404 -2 24 C-5.17798678 17.64402644 -1.52460117 6.6904828 0 0 Z M-5 13 C-4.01 13.33 -3.02 13.66 -2 14 C-2.66 14 -3.32 14 -4 14 C-4 16.31 -4 18.62 -4 21 C-4.66 20.67 -5.32 20.34 -6 20 C-5.67 17.69 -5.34 15.38 -5 13 Z " fill="#676B79" transform="translate(64,24)"/>
<path d="M0 0 C1.32 0 2.64 0 4 0 C3.01 4.95 2.02 9.9 1 15 C-1 13 -1 13 -1.23046875 10.21484375 C-1.21628906 9.13332031 -1.20210937 8.05179688 -1.1875 6.9375 C-1.18105469 5.85339844 -1.17460938 4.76929688 -1.16796875 3.65234375 C-1 1 -1 1 0 0 Z " fill="#4A5060" transform="translate(35,3)"/>
</svg>
