<?xml version="1.0" encoding="UTF-8"?>
<svg version="1.1" xmlns="http://www.w3.org/2000/svg" width="66" height="67">
<path d="M0 0 C21.78 0 43.56 0 66 0 C66 22.11 66 44.22 66 67 C44.22 67 22.44 67 0 67 C0 44.89 0 22.78 0 0 Z " fill="#FBFBFC" transform="translate(0,0)"/>
<path d="M0 0 C4 0 4 0 6.4375 2.125 C8.10945262 4.00084928 9.73757186 5.91698124 11.3125 7.875 C14.44361547 11.71953419 18.23770772 14.79421345 22 18 C24.5625 20.1875 24.5625 20.1875 26 22 C25.73878143 24.43475422 25.30455435 25.67919134 23.609375 27.46484375 C22.68898438 28.19380859 22.68898438 28.19380859 21.75 28.9375 C18.91577576 31.27881568 16.27139718 33.70287768 13.71875 36.34375 C13.14672852 36.93422119 12.57470703 37.52469238 11.98535156 38.13305664 C10.83881098 39.32524593 9.69994531 40.52486955 8.56933594 41.73217773 C7.12000971 43.22988781 5.56488712 44.62347892 4 46 C2.68 46 1.36 46 0 46 C0 42.37 0 38.74 0 35 C-10.90105036 36.74955129 -19.94240969 39.13612743 -26.75 48.375 C-27.1625 48.91125 -27.575 49.4475 -28 50 C-28.99 50 -29.98 50 -31 50 C-31.77091478 40.90320565 -29.37361222 32.89137806 -24.16796875 25.34375 C-19.40645804 19.70882608 -14.04395034 15.34798345 -7 13 C-4.66700175 12.96045766 -2.33291811 12.95598268 0 13 C0 8.71 0 4.42 0 0 Z " fill="#545967" transform="translate(37,9)"/>
<path d="M0 0 C4.11866904 3.41761899 8.11313049 6.94494358 12 10.625 C12.78375 11.35976563 13.5675 12.09453125 14.375 12.8515625 C16 15 16 15 15.78100586 16.93212891 C14.89556297 19.27651819 13.89986857 20.47343648 12.12890625 22.234375 C11.55462891 22.80800781 10.98035156 23.38164063 10.38867188 23.97265625 C9.4847168 24.85244141 9.4847168 24.85244141 8.5625 25.75 C7.96373047 26.35199219 7.36496094 26.95398438 6.74804688 27.57421875 C2.26706881 32 2.26706881 32 0 32 C0 29.36 0 26.72 0 24 C-13.67600486 24.36085285 -13.67600486 24.36085285 -25.625 30.1875 C-26.305625 31.0846875 -26.305625 31.0846875 -27 32 C-27.66 31.67 -28.32 31.34 -29 31 C-26.57896184 23.02481548 -22.51232145 18.10391198 -16.3125 12.625 C-11.42128021 10.22553369 -6.3715091 9.66057393 -1 9 C-0.67 6.03 -0.34 3.06 0 0 Z " fill="#F6F6F7" transform="translate(41,16)"/>
<path d="M0 0 C0 0.66 0 1.32 0 2 C-0.68964844 2.1959375 -1.37929688 2.391875 -2.08984375 2.59375 C-9.97927279 5.1045148 -16.73302409 8.73943815 -21.22265625 15.96875 C-22.48748095 18.74548143 -23 20.94364895 -23 24 C-22.29875 23.505 -21.5975 23.01 -20.875 22.5 C-17.62880281 20.8063319 -15.60659844 20.74837685 -12 21 C-14.16843738 23.33524026 -16.16703607 25.10530535 -18.875 26.8125 C-22.14810894 29.10367626 -24.20525605 31.46198865 -26.60546875 34.609375 C-28 36 -28 36 -31 36 C-31.77151995 26.89606453 -29.41888125 18.72550319 -24.02734375 11.2734375 C-17.01015008 3.22006009 -10.88888009 -0.544444 0 0 Z " fill="#616571" transform="translate(37,23)"/>
<path d="M0 0 C4 0 4 0 6.5 2.1875 C8.760411 4.73046238 10.92209927 7.30642498 13 10 C10.50638429 8.79618552 8.31856917 7.54571278 6 6 C5.34 9.3 4.68 12.6 4 16 C-3.42857143 18.42857143 -3.42857143 18.42857143 -7 17 C-3.535 16.505 -3.535 16.505 0 16 C0 15.34 0 14.68 0 14 C-1.2375 14.350625 -2.475 14.70125 -3.75 15.0625 C-6.903292 15.95593273 -8.86774164 16.00881294 -12 15 C-7.8794254 13.00214565 -4.54805635 12.82164485 0 13 C0 8.71 0 4.42 0 0 Z " fill="#656977" transform="translate(37,9)"/>
<path d="M0 0 C-2.16843738 2.33524026 -4.16703607 4.10530535 -6.875 5.8125 C-10.14810894 8.10367626 -12.20525605 10.46198865 -14.60546875 13.609375 C-16 15 -16 15 -19 15 C-19 12.03 -19 9.06 -19 6 C-18.34 6 -17.68 6 -17 6 C-16.67 4.68 -16.34 3.36 -16 2 C-15.34 2.33 -14.68 2.66 -14 3 C-14 3.66 -14 4.32 -14 5 C-13.49210938 4.6390625 -12.98421875 4.278125 -12.4609375 3.90625 C-8.16783762 1.01202536 -5.36584077 -0.6707301 0 0 Z " fill="#545765" transform="translate(25,44)"/>
<path d="M0 0 C0 2.64 0 5.28 0 8 C0.66 8.33 1.32 8.66 2 9 C1.01 9 0.02 9 -1 9 C-1 6.36 -1 3.72 -1 1 C-1.66 1 -2.32 1 -3 1 C-3 4.96 -3 8.92 -3 13 C-1.68 13.33 -0.36 13.66 1 14 C-0.65 14.33 -2.3 14.66 -4 15 C-4 11.37 -4 7.74 -4 4 C-8.29 4.66 -12.58 5.32 -17 6 C-17 5.67 -17 5.34 -17 5 C-20.62528568 4.79859524 -22.86501708 5.14223235 -26 7 C-23.2245288 2.72188516 -20.77135364 1.83738968 -15.984375 0.52734375 C-10.67237156 -0.4112956 -5.37198226 -0.22734094 0 0 Z " fill="#636776" transform="translate(41,40)"/>
<path d="M0 0 C0 0.66 0 1.32 0 2 C-0.73605469 2.24234375 -1.47210938 2.4846875 -2.23046875 2.734375 C-7.60219971 4.57935525 -11.64249839 6.28330745 -16 10 C-18.8125 10.75 -18.8125 10.75 -21 11 C-20.75844535 7.73901226 -19.77284776 6.76730746 -17.4375 4.375 C-12.28499604 0.3592595 -6.39762447 -0.31988122 0 0 Z " fill="#5C606D" transform="translate(37,23)"/>
<path d="M0 0 C0.66 0 1.32 0 2 0 C2 2.64 2 5.28 2 8 C2.928125 7.525625 3.85625 7.05125 4.8125 6.5625 C8 5 8 5 11 4 C9.55481219 7.3721049 7.87649547 9.69880363 5 12 C3.35 12 1.7 12 0 12 C0 8.04 0 4.08 0 0 Z " fill="#454A59" transform="translate(38,41)"/>
<path d="M0 0 C0 0.66 0 1.32 0 2 C-1.41396902 2.50757862 -2.83131729 3.00574925 -4.25 3.5 C-5.43335938 3.91765625 -5.43335938 3.91765625 -6.640625 4.34375 C-9 5 -9 5 -13 5 C-12.67 4.01 -12.34 3.02 -12 2 C-7.9083139 0.19204568 -4.44280672 -0.21156222 0 0 Z " fill="#404756" transform="translate(37,23)"/>
<path d="M0 0 C0.886875 0.103125 1.77375 0.20625 2.6875 0.3125 C0.23050608 2.94499349 -1.87818654 5.09387264 -5.3125 6.3125 C-6.3025 5.9825 -7.2925 5.6525 -8.3125 5.3125 C-4.12788462 0.38942308 -4.12788462 0.38942308 0 0 Z " fill="#434858" transform="translate(22.3125,43.6875)"/>
<path d="M0 0 C-0.66 0 -1.32 0 -2 0 C-2 0.66 -2 1.32 -2 2 C-1.01 2.33 -0.02 2.66 1 3 C-0.65 3.33 -2.3 3.66 -4 4 C-4 3.67 -4 3.34 -4 3 C-7.62528568 2.79859524 -9.86501708 3.14223235 -13 5 C-11.28158532 2.13597554 -10.15883902 1.07097062 -7.0625 -0.3125 C-4.12938515 -0.97095435 -2.7534603 -1.05902319 0 0 Z " fill="#747886" transform="translate(28,42)"/>
<path d="M0 0 C0.66 0.33 1.32 0.66 2 1 C0.71451591 2.33929505 -0.57858155 3.67128643 -1.875 5 C-2.59429688 5.7425 -3.31359375 6.485 -4.0546875 7.25 C-6 9 -6 9 -8 9 C-6.4169423 4.7257442 -3.49431596 2.73468206 0 0 Z " fill="#DEDEE2" transform="translate(19,48)"/>
<path d="M0 0 C1.125 3.75 1.125 3.75 0 6 C0.99 6 1.98 6 3 6 C3 7.32 3 8.64 3 10 C2.34 10 1.68 10 1 10 C0.34 9.34 -0.32 8.68 -1 8 C-1.66 8.99 -2.32 9.98 -3 11 C-2.32829194 7.1936543 -1.27253436 3.64793184 0 0 Z " fill="#7C7F89" transform="translate(10,39)"/>
<path d="M0 0 C1.2077558 3.62326739 0.54311128 4.64146369 -1 8 C-1.99 8 -2.98 8 -4 8 C-3.40138258 5.64828869 -2.73075648 3.3140622 -2 1 C-1.34 0.67 -0.68 0.34 0 0 Z " fill="#474E5C" transform="translate(14,37)"/>
<path d="M0 0 C0.66 0 1.32 0 2 0 C2.433125 0.9590625 2.433125 0.9590625 2.875 1.9375 C3.82823451 4.15206079 3.82823451 4.15206079 6 5 C4.02 5.99 4.02 5.99 2 7 C1.01 6.34 0.02 5.68 -1 5 C-0.67 3.35 -0.34 1.7 0 0 Z " fill="#656976" transform="translate(56,30)"/>
</svg>
