<?xml version="1.0" encoding="UTF-8"?>
<svg xmlns="http://www.w3.org/2000/svg" viewBox="0 0 113 67">
<path d="M0 0 C37.29 0 74.58 0 113 0 C113 22.11 113 44.22 113 67 C75.71 67 38.42 67 0 67 C0 44.89 0 22.78 0 0 Z " fill="#FBFAFC" transform="translate(0,0)"/>
<path d="M0 0 C5.71673577 3.66182734 10.25624812 8.96310837 12.29296875 15.46875 C13.47416033 25.17924359 11.53483894 33.49347768 5.66796875 41.34375 C0.1750868 47.13798707 -6.62473638 48.69191083 -14.39453125 48.90625 C-21.69728558 48.64911076 -26.66747835 46.99471192 -32.2890625 42.06640625 C-35.06836147 38.93490962 -36.86573641 35.20269052 -38.70703125 31.46875 C-39.03703125 30.80875 -39.36703125 30.14875 -39.70703125 29.46875 C-40.55308546 19.67671273 -39.33878979 13.62350405 -33.76953125 5.71875 C-24.94560525 -3.90735109 -11.78978423 -5.38521955 0 0 Z " fill="#4076F8" transform="translate(53.70703125,13.53125)"/>
<path d="M0 0 C6.99136479 5.38602645 11.54611435 10.05640038 13 19 C13.72499578 27.56478068 12.69038628 33.80701147 7.25 40.6875 C2.39986077 46.0431128 -3.01110188 48.64804952 -10.21484375 49.15625 C-19.27795483 49.49140357 -25.92429324 47.4740848 -32.78515625 41.5 C-34 40 -34 40 -34 37 C-33.34 37 -32.68 37 -32 37 C-31.67 35.35 -31.34 33.7 -31 32 C-30.34 32 -29.68 32 -29 32 C-29.08759258 29.45679484 -29.19453413 26.91683067 -29.3125 24.375 C-29.33505859 23.66214844 -29.35761719 22.94929688 -29.38085938 22.21484375 C-29.62179022 17.44003237 -30.63199379 14.24477708 -33 10 C-33.1875 7.5 -33.1875 7.5 -32 5 C-23.48602501 -2.97217658 -10.82093751 -4.99427885 0 0 Z " fill="#F64F73" transform="translate(99,13)"/>
<path d="M0 0 C4.875 0.875 4.875 0.875 6 2 C6.14115161 4.67058851 6.04247107 7.32432238 6 10 C8.97 10 11.94 10 15 10 C15.13392857 19.10714286 15.13392857 19.10714286 14 23 C13.34 23 12.68 23 12 23 C12 24.32 12 25.64 12 27 C6.06 27 0.12 27 -6 27 C-6.103125 24.421875 -6.20625 21.84375 -6.3125 19.1875 C-6.35802002 18.37949951 -6.40354004 17.57149902 -6.45043945 16.73901367 C-6.48828125 14.79296875 -6.48828125 14.79296875 -6 11 C-3.53125 9.25 -3.53125 9.25 -1 8 C-0.19363191 5.97873076 -0.19363191 5.97873076 -0.1875 3.8125 C-0.125625 2.554375 -0.06375 1.29625 0 0 Z " fill="#F4F7FE" transform="translate(39,21)"/>
<path d="M0 0 C1.8871875 0.0928125 1.8871875 0.0928125 3.8125 0.1875 C4.31495163 6.46814539 4.03366685 10.16773402 -0.1875 15.1875 C-0.97125 16.156875 -1.755 17.12625 -2.5625 18.125 C-5.1875 20.1875 -5.1875 20.1875 -7.984375 20.1328125 C-11.90070788 18.9770167 -14.22621786 16.92659934 -17.0625 14.125 C-17.80886719 13.41633789 -17.80886719 13.41633789 -18.5703125 12.69335938 C-19.78650744 11.53563535 -20.98850457 10.36302754 -22.1875 9.1875 C-21.59029244 6.02893557 -21.26786011 5.26363063 -18.8125 2.9375 C-16.1875 1.1875 -16.1875 1.1875 -13.1875 1.1875 C-13.1875 1.8475 -13.1875 2.5075 -13.1875 3.1875 C-10.31299017 3.43798636 -10.31299017 3.43798636 -7.1875 3.1875 C-6.73375 2.6925 -6.28 2.1975 -5.8125 1.6875 C-3.7340304 -0.23108732 -2.77548122 -0.01458221 0 0 Z " fill="#FDF8FA" transform="translate(96.1875,27.8125)"/>
<path d="M0 0 C1.98 0 3.96 0 6 0 C6 5.28 6 10.56 6 16 C4.02 16 2.04 16 0 16 C0 10.72 0 5.44 0 0 Z " fill="#FAFBFE" transform="translate(25,33)"/>
<path d="M0 0 C0.33 0 0.66 0 1 0 C1 5.28 1 10.56 1 16 C0.34 16 -0.32 16 -1 16 C-1.33 17.65 -1.66 19.3 -2 21 C-2.66 21 -3.32 21 -4 21 C-4.33 21.99 -4.66 22.98 -5 24 C-5.99 24 -6.98 24 -8 24 C-6 18 -6 18 -4.9375 15.0625 C-3.91372209 11.71815882 -3.41616208 8.4680173 -3 5 C-2.34 5.66 -1.68 6.32 -1 7 C-0.67 4.69 -0.34 2.38 0 0 Z " fill="#E8C7DD" transform="translate(69,29)"/>
<path d="M0 0 C0.66 0.33 1.32 0.66 2 1 C3.25433458 4.76300374 3.10695422 8.27210909 3.0625 12.1875 C3.05798828 12.93708984 3.05347656 13.68667969 3.04882812 14.45898438 C3.03706354 16.30602383 3.01912865 18.15302213 3 20 C2.67 20 2.34 20 2 20 C1.46535565 17.79496964 0.94785565 15.58577828 0.4375 13.375 C0.14746094 12.14523438 -0.14257812 10.91546875 -0.44140625 9.6484375 C-0.99059728 6.06141357 -0.81517436 3.50902871 0 0 Z " fill="#F7ECF2" transform="translate(66,23)"/>
<path d="M0 0 C0.66 0.33 1.32 0.66 2 1 C0.56974806 2.65213589 -0.86945545 4.29652589 -2.3125 5.9375 C-3.11300781 6.85402344 -3.91351563 7.77054688 -4.73828125 8.71484375 C-7 11 -7 11 -10 12 C-8.43873668 8.16780823 -5.97133075 5.82638778 -3 3 C-2.401875 2.401875 -1.80375 1.80375 -1.1875 1.1875 C-0.795625 0.795625 -0.40375 0.40375 0 0 Z " fill="#6D98FA" transform="translate(27,13)"/>
<path d="M0 0 C0.99 0.33 1.98 0.66 3 1 C1.50260417 2.20442708 0.00520833 3.40885417 -1.4921875 4.61328125 C-3.25292107 6.12270545 -3.25292107 6.12270545 -5 9 C-5.33 7.68 -5.66 6.36 -6 5 C-1.60546875 0.99609375 -1.60546875 0.99609375 0 0 Z " fill="#FCC5D5" transform="translate(80,29)"/>
<path d="M0 0 C2.05078125 0.03255208 4.1015625 0.06510417 6.15234375 0.09765625 C6.15234375 0.42765625 6.15234375 0.75765625 6.15234375 1.09765625 C4.48171875 1.53078125 4.48171875 1.53078125 2.77734375 1.97265625 C-0.85056717 2.79006954 -0.85056717 2.79006954 -2.84765625 5.09765625 C-5.47265625 5.22265625 -5.47265625 5.22265625 -7.84765625 5.09765625 C-7.04328125 4.45828125 -6.23890625 3.81890625 -5.41015625 3.16015625 C-1.58819383 0.08394259 -1.58819383 0.08394259 0 0 Z " fill="#FADAE3" transform="translate(93.84765625,27.90234375)"/>
<path d="M0 0 C2 2 2 2 2.125 5.625 C2.08375 6.73875 2.0425 7.8525 2 9 C1.34 9 0.68 9 0 9 C-0.33 9.66 -0.66 10.32 -1 11 C-0.67 7.37 -0.34 3.74 0 0 Z " fill="#BFD4FB" transform="translate(66,34)"/>
<path d="M0 0 C3.35693737 2.23795825 3.91970563 3.2189697 5 7 C4.625 9.3125 4.625 9.3125 4 11 C4 10.34 4 9.68 4 9 C3.34 9 2.68 9 2 9 C1.34 6.03 0.68 3.06 0 0 Z " fill="#6296FB" transform="translate(61,22)"/>
</svg>
